<?xml version="1.0" standalone="no"?>
<!DOCTYPE svg PUBLIC "-//W3C//DTD SVG 20010904//EN"
 "http://www.w3.org/TR/2001/REC-SVG-20010904/DTD/svg10.dtd">
<svg version="1.0" xmlns="http://www.w3.org/2000/svg"
 width="200.000000pt" height="141.000000pt" viewBox="0 0 200.000000 141.000000"
 preserveAspectRatio="xMidYMid meet">
<g transform="translate(0.000000,141.000000) scale(0.100000,-0.100000)"
fill="#ff000e" stroke="none">
<path d="M425 1399 c-162 -12 -222 -24 -275 -57 -126 -77 -157 -229 -147 -715
6 -307 19 -403 64 -476 39 -62 106 -106 185 -120 140 -24 420 -33 878 -28 617
6 704 18 785 108 76 84 85 150 85 596 0 360 -7 445 -41 523 -54 121 -124 150
-409 170 -173 12 -955 11 -1125 -1z m650 -546 c218 -125 252 -148 237 -158
-45 -31 -492 -285 -502 -285 -7 0 -10 97 -10 295 0 199 3 295 10 295 6 0 125
-66 265 -147z"/>
</g>
</svg>
